<?xml version="1.0" standalone="no"?>
<!DOCTYPE svg PUBLIC "-//W3C//DTD SVG 20010904//EN"
 "http://www.w3.org/TR/2001/REC-SVG-20010904/DTD/svg10.dtd">
<svg version="1.0" xmlns="http://www.w3.org/2000/svg"
 width="512.000000pt" height="512.000000pt" viewBox="0 0 512.000000 512.000000"
 preserveAspectRatio="xMidYMid meet">
<metadata>
Created by potrace 1.11, written by Peter Selinger 2001-2013
</metadata>
<g transform="translate(0.000000,512.000000) scale(0.100000,-0.100000)"
fill="#000000" stroke="none">
<path d="M1278 4525 c-2 -2 -21 -6 -43 -8 -128 -15 -315 -87 -430 -166 -210
-143 -349 -316 -433 -541 -55 -148 -67 -219 -66 -390 0 -133 7 -192 33 -281
117 -410 426 -702 841 -797 65 -15 138 -17 560 -17 539 0 521 -2 591 69 47 48
64 92 64 166 -1 98 -48 175 -131 215 -50 24 -64 24 -509 25 -451 1 -496 5
-613 60 -56 26 -90 49 -165 110 -11 8 -39 41 -63 72 -176 226 -176 539 -1 765
45 58 64 76 127 124 95 71 227 116 350 118 119 3 226 -25 336 -86 54 -30 158
-125 193 -177 32 -47 111 -193 111 -205 0 -5 -14 -14 -32 -22 -66 -27 -184
-114 -263 -192 -87 -88 -153 -181 -223 -317 l-44 -85 63 -2 c35 -2 222 -4 414
-5 l350 -3 55 -27 c140 -70 208 -191 208 -375 0 -180 -92 -323 -241 -374 -47
-16 -101 -18 -541 -19 -269 0 -491 -2 -493 -3 -1 -2 -5 -35 -9 -73 -3 -38 -7
-87 -9 -109 -3 -22 -7 -175 -11 -340 -5 -213 -3 -312 5 -342 16 -57 79 -134
149 -181 51 -36 58 -44 60 -77 8 -120 136 -217 257 -194 53 10 106 39 133 74
17 21 22 22 68 14 102 -19 132 -23 292 -38 83 -8 504 -6 587 2 67 7 268 37
306 46 33 8 38 6 62 -24 30 -37 95 -71 149 -78 48 -6 131 23 170 59 41 38 69
103 70 161 1 44 5 51 58 103 96 91 104 115 103 310 0 91 -3 243 -7 338 -7 166
-7 174 11 168 71 -23 223 -48 319 -52 l114 -6 0 241 0 241 -22 1 c-162 4 -302
36 -439 98 l-65 29 -23 99 c-36 149 -77 266 -137 393 -48 99 -115 214 -134
230 -3 3 -14 16 -23 30 -32 46 -141 151 -204 196 -152 108 -354 177 -534 183
-36 1 -39 4 -92 99 -30 53 -67 122 -82 152 -109 216 -308 410 -530 514 -156
74 -293 104 -471 104 -67 1 -124 -1 -126 -3z m1357 -2680 c59 -29 117 -92 138
-150 18 -53 23 -170 8 -180 -5 -3 -12 -18 -16 -34 -9 -44 -88 -117 -150 -140
-276 -103 -498 246 -287 452 77 75 212 98 307 52z"/>
<path d="M4305 2704 c-68 -34 -64 -1 -65 -611 0 -604 0 -607 57 -636 42 -22
321 -24 362 -2 61 31 60 20 61 619 0 610 1 604 -64 631 -51 22 -309 21 -351
-1z"/>
</g>
</svg>
